<svg version="1.1" xmlns="http://www.w3.org/2000/svg" style="display: block;" viewBox="0 0 2048 2048" width="512" height="512" preserveAspectRatio="none">
<path transform="translate(0,0)" fill="rgb(237,115,63)" d="M 1087.43 581.288 C 1108.64 603.364 1129.77 647.591 1148.57 673.651 C 1188 728.305 1221.34 790.075 1259.52 845.411 C 1298.08 901.282 1332.2 963.544 1371.66 1017.98 C 1381.34 1034.81 1425.54 1106.28 1437.32 1116.74 C 1413.69 1154.32 1390.57 1192.38 1382.13 1236.8 C 1378.06 1258.24 1378.9 1287.67 1378.93 1309.78 L 1379 1395.43 L 1379 1711.48 C 1379.08 1784.49 1394.94 1878.37 1305.51 1904.54 C 1274.39 1913.65 1225.66 1909.61 1192.39 1909.88 L 919.745 1910.02 L 834.301 1910.05 C 819.949 1910.05 805.605 1910.05 791.24 1909.67 C 768.948 1909.07 747.947 1904.58 728.861 1892.4 C 670.123 1854.9 680.659 1777.91 680.494 1717.36 L 680.217 1548.85 L 680.218 1357.65 C 680.264 1316.27 678.727 1270.02 685.405 1229.49 C 692.125 1188.7 723.788 1147.24 746.254 1112.8 L 806.606 1018.58 C 877.234 907.317 948.516 796.467 1020.45 686.04 C 1042.42 650.894 1064.74 615.975 1087.43 581.288 z"/>
<path transform="translate(0,0)" fill="rgb(213,88,36)" d="M 1087.43 581.288 C 1108.64 603.364 1129.77 647.591 1148.57 673.651 C 1188 728.305 1221.34 790.075 1259.52 845.411 C 1298.08 901.282 1332.2 963.544 1371.66 1017.98 C 1381.34 1034.81 1425.54 1106.28 1437.32 1116.74 C 1413.69 1154.32 1390.57 1192.38 1382.13 1236.8 C 1378.06 1258.24 1378.9 1287.67 1378.93 1309.78 L 1379 1395.43 L 1379 1711.48 C 1379.08 1784.49 1394.94 1878.37 1305.51 1904.54 C 1274.39 1913.65 1225.66 1909.61 1192.39 1909.88 C 1194.65 1909.27 1195.64 1908.97 1197.8 1908.09 C 1200.24 1904.56 1210.9 1900.13 1215.01 1897.24 C 1237.14 1881.67 1255.97 1854.55 1260.59 1827.67 C 1262.71 1815.36 1265.61 1738.45 1260.32 1730.95 C 1274.15 1714.47 1286.55 1688.06 1289.85 1666.81 C 1297.09 1620.27 1285.53 1586.86 1258.93 1549.68 C 1264.28 1536.35 1262.67 1500.14 1262.74 1484.45 L 1262.66 1337.77 C 1262.6 1269.57 1256.63 1201.34 1295.71 1142 C 1299.49 1136.26 1303.06 1130.17 1306.65 1124.3 C 1291.8 1107.35 1278.18 1083.53 1265.53 1064.07 L 1204.3 970.077 L 1068.39 760.761 C 1060.79 748.636 1053.02 736.609 1045.11 724.685 C 1038.19 714.468 1029.06 702.397 1023.4 691.43 C 1021.91 688.535 1023 689.56 1020.45 686.04 C 1042.42 650.894 1064.74 615.975 1087.43 581.288 z"/>
<path transform="translate(0,0)" fill="rgb(254,254,254)" d="M 1061.79 1577.09 C 1060.97 1580.06 1059.99 1582.99 1058.85 1585.86 C 1050.02 1608.45 1028.45 1623.52 1003.98 1612.6 C 971.123 1596.93 982.578 1562 980.055 1532.32 C 976.949 1495.81 984.198 1454.16 1033.17 1464.48 C 1047.12 1467.42 1057.18 1482.69 1060.64 1496.81 C 1072.85 1495.78 1085.81 1496.82 1098.07 1496.52 C 1165.31 1494.87 1210.82 1495.52 1258.93 1549.68 C 1285.53 1586.86 1297.09 1620.27 1289.85 1666.81 C 1286.55 1688.06 1274.15 1714.47 1260.32 1730.95 C 1234.27 1761.4 1195.64 1786.2 1154.32 1783.91 C 1107.61 1781.32 1100.6 1718.42 1145.32 1705.46 C 1161.79 1700.68 1174.83 1701.02 1188.74 1689.51 C 1201.21 1679.09 1209.04 1664.14 1210.51 1647.96 C 1211.86 1631.44 1206.56 1610.9 1195.15 1598.48 C 1173.24 1574.64 1147.28 1577.61 1117.95 1577.61 C 1099.59 1577.61 1079.6 1578.33 1061.79 1577.09 z"/>
<path transform="translate(0,0)" fill="rgb(254,254,254)" d="M 848.273 1701.4 C 872.104 1698.95 893.431 1716.23 895.979 1740.05 C 898.528 1763.87 881.337 1785.27 857.528 1787.91 C 833.58 1790.57 812.031 1773.26 809.468 1749.3 C 806.905 1725.35 824.305 1703.87 848.273 1701.4 z"/>
<path transform="translate(0,0)" fill="rgb(254,254,254)" d="M 1013.79 1701.79 C 1037.59 1698.93 1059.17 1716.01 1061.87 1739.83 C 1064.58 1763.65 1047.37 1785.12 1023.53 1787.68 C 999.9 1790.21 978.66 1773.18 975.982 1749.57 C 973.304 1725.96 990.192 1704.61 1013.79 1701.79 z"/>
<path transform="translate(0,0)" fill="rgb(80,80,80)" d="M 1753.79 147.763 C 1794.39 145.899 1845.07 147.621 1886.55 147.295 C 1912.68 147.11 1938.82 147.074 1964.96 147.186 C 1981.21 147.197 1998.96 146.567 2014.92 148.634 C 2032.49 150.91 2044.16 164.423 2044.45 181.957 C 2044.7 197.032 2041.49 207.706 2033.23 220.39 C 2015.99 247.77 1997.56 274.78 1979.54 301.655 L 1900.81 419.906 L 1689.99 737.481 L 1514.66 1000.93 L 1463.26 1078.35 C 1457.8 1086.61 1442.84 1110.33 1437.32 1116.74 C 1425.54 1106.28 1381.34 1034.81 1371.66 1017.98 C 1332.2 963.544 1298.08 901.282 1259.52 845.411 C 1221.34 790.075 1188 728.305 1148.57 673.651 C 1129.77 647.591 1108.64 603.364 1087.43 581.288 C 1096.77 566.169 1110.35 548.001 1120.59 532.039 C 1166.53 460.125 1213.04 388.575 1260.1 317.393 L 1312.26 237.365 C 1324.32 218.63 1336.27 196.025 1351.8 180.252 C 1385.6 145.927 1422.37 147.598 1466.45 147.582 L 1540.29 147.603 C 1609.99 147.637 1684.62 146.167 1753.79 147.763 z"/>
<path transform="translate(0,0)" fill="rgb(52,52,52)" d="M 1753.79 147.763 C 1794.39 145.899 1845.07 147.621 1886.55 147.295 C 1912.68 147.11 1938.82 147.074 1964.96 147.186 C 1981.21 147.197 1998.96 146.567 2014.92 148.634 C 2032.49 150.91 2044.16 164.423 2044.45 181.957 C 2044.7 197.032 2041.49 207.706 2033.23 220.39 C 2015.99 247.77 1997.56 274.78 1979.54 301.655 L 1900.81 419.906 L 1689.99 737.481 L 1514.66 1000.93 L 1463.26 1078.35 C 1457.8 1086.61 1442.84 1110.33 1437.32 1116.74 C 1425.54 1106.28 1381.34 1034.81 1371.66 1017.98 C 1376.12 1014.05 1403.64 972.154 1408.75 964.575 L 1521.84 794.925 L 1749.48 451.583 L 1866.96 275.212 C 1882.97 251.112 1900.41 228.189 1914.61 202.974 C 1928.94 177.521 1918.79 164.579 1898.92 148.429 C 1889.94 147.693 1874.01 148.167 1864.3 148.167 L 1795.41 148.191 C 1782.43 148.195 1766.57 148.625 1753.79 147.763 z"/>
<path transform="translate(0,0)" fill="rgb(80,80,80)" d="M 489.459 147.314 L 564.993 146.816 C 588.471 146.677 612.647 145.949 636.039 148.358 C 699.66 154.912 725.628 211.682 756.769 260.3 L 812.802 346.364 C 843.488 393.119 873.884 440.063 903.99 487.193 C 917.014 507.298 935.434 532.87 946.886 553.384 C 926.977 586.735 903.604 619.692 882.86 652.914 C 867.587 672.751 847.598 706.935 833.437 728.662 L 730.668 885.716 L 630.022 1038.77 C 621.492 1051.98 603.798 1075.07 598.033 1088.05 C 575.441 1060.81 552.784 1021.97 532.379 992.126 C 473.364 904.615 414.871 816.752 356.904 728.542 L 152.481 420.107 C 123.007 376.592 93.8891 332.837 65.1299 288.846 C 48.6632 264.19 31.6891 239.465 15.6403 214.54 C 10.7345 206.921 6.27422 193.64 6.20753 184.46 C 6.11004 174.917 9.88625 165.742 16.6731 159.033 C 22.4076 153.33 29.5926 149.528 37.5862 148.777 C 55.3582 147.105 74.3764 147.286 92.1885 147.301 L 183.341 147.54 L 489.459 147.314 z"/>
<path transform="translate(0,0)" fill="rgb(52,52,52)" d="M 489.459 147.314 L 564.993 146.816 C 588.471 146.677 612.647 145.949 636.039 148.358 C 699.66 154.912 725.628 211.682 756.769 260.3 L 812.802 346.364 C 843.488 393.119 873.884 440.063 903.99 487.193 C 917.014 507.298 935.434 532.87 946.886 553.384 C 926.977 586.735 903.604 619.692 882.86 652.914 C 864.57 634.418 835.631 584.441 820.055 560.656 L 666.338 327.109 L 610.335 242.008 C 588.142 207.924 567.455 169.495 531.137 148.63 C 528.285 146.991 497.217 148.68 489.459 147.314 z"/>
</svg>